# xmcd CD database file
#
# Track frame offsets:
#	150
#	34245
#	53939
#	72978
#	93310
#	112513
#	135682
#	159297
#	171743
#	197840
#	246447
#	270998
#	301748
#
# Disc length: 4398 seconds
#
# Revision: 1
# Processed by: cddbd v1.5.2PL0 Copyright (c) Steve Scherf et al.
# Submitted via: CDex 1.70beta2
#
DISCID=af112c0d
DTITLE=Frank Duval - If I Could Fly Away and  Touch My Soul
DYEAR=1900
DGENRE=
TTITLE0=Touch My Soul
TTITLE1=Avedana
TTITLE2=Life Will Go On
TTITLE3=He Came From Space
TTITLE4=Children of Out Time
TTITLE5=And One Day
TTITLE6=Closer To Heaven
TTITLE7=Prologue
TTITLE8=Sign In The Sky
TTITLE9=Back To Eternity
TTITLE10=Give Me Your Love
TTITLE11=If I Could Fly Away
TTITLE12=Light Waves
EXTD=
EXTT0=
EXTT1=
EXTT2=
EXTT3=
EXTT4=
EXTT5=
EXTT6=
EXTT7=
EXTT8=
EXTT9=
EXTT10=
EXTT11=
EXTT12=
PLAYORDER=
